<svg xmlns="http://www.w3.org/2000/svg" shape-rendering="geometricPrecision" text-rendering="geometricPrecision" image-rendering="optimizeQuality" viewBox="0 0 7987 8155"><path id="icon-user" d="M7908 6230c-905 1168-2322 1921-3915 1921-1592 0-3009-753-3914-1921-103-133-99-315 9-444 290-347 734-773 1029-901 376-163 750-331 1124-497 126-57 264-37 371 51 920 767 1843 767 2763 0 107-88 245-108 371-51 374 166 748 334 1124 497 295 128 739 554 1029 901 108 129 112 311 9 444zM3993 4c1059 0 1918 827 1918 2141s-859 2379-1918 2379c-1058 0-1917-1065-1917-2379S2935 4 3993 4z"/></svg>