<svg xmlns="http://www.w3.org/2000/svg" shape-rendering="geometricPrecision" text-rendering="geometricPrecision" image-rendering="optimizeQuality" viewBox="0 0 2672 2471"><path id="icon-layout" d="M221 1h2230c60 0 115 25 155 65s65 95 65 155v1512c0 61-25 116-65 156s-95 64-155 64h-741c5 180 12 331 62 415h186c28 0 51 22 51 51 0 28-23 50-51 50H714c-28 0-51-22-51-50 0-29 23-51 51-51h186c50-84 57-235 62-415H221c-60 0-115-24-155-64s-65-95-65-156V221c0-60 25-115 65-155S161 1 221 1zm2230 102H221c-32 0-62 13-83 35-22 21-35 51-35 83v1348h2466V221c0-32-13-62-35-83-21-22-51-35-83-35zm118 1630v-63H103v63c0 33 13 62 35 84 21 21 51 35 83 35h2230c32 0 62-14 83-35 22-22 35-51 35-84zm-960 220h-546c-5 166-10 310-51 415h648c-41-105-46-249-51-415zm-751-511c-28 0-50-23-50-51s22-51 50-51h1243c28 0 51 23 51 51s-23 51-51 51H858zm-287 7c-28 0-51-23-51-51s23-51 51-51h3c28 0 51 23 51 51s-23 51-51 51h-3zM916 387c20-18 52-17 71 4 19 20 18 52-3 71L653 765l331 302c21 19 22 51 3 72-19 20-51 22-71 3L544 802l-3-3c-19-21-18-53 3-72l372-340zm517-86c8-26 37-41 63-33 27 9 42 37 33 64l-287 906c-9 27-37 42-64 33-26-8-41-37-33-63l288-907zm261 161c-20-19-22-51-3-71 19-21 51-22 72-4l372 340c20 19 22 51 3 72l-3 3-372 340c-21 19-53 17-72-3-19-21-17-53 3-72l332-302-332-303z"/></svg>