<svg xmlns="http://www.w3.org/2000/svg" shape-rendering="geometricPrecision" text-rendering="geometricPrecision" image-rendering="optimizeQuality" viewBox="0 0 4010 4007"><path id="icon-completion" d="M2210 1637c-33-30-35-81-5-114 30-34 82-36 115-6l449 411c33 30 36 82 5 115-1 2-3 3-5 5l-449 410c-33 31-85 28-115-5s-28-84 5-115l384-350-384-351zm-192-258c17-42 65-61 107-43 41 17 60 65 43 107l-493 1155c-18 41-66 60-107 43-42-18-61-66-43-107l493-1155zm-690 138c33-30 85-28 115 6 30 33 28 84-5 114l-384 351 384 350c33 31 35 82 5 115s-82 36-115 5l-449-410c-2-2-4-3-5-5-31-33-28-85 5-115l449-411zm1754 1191c103 0 196 41 263 109h0c68 67 109 160 109 263 0 102-41 195-109 262v1c-67 67-160 109-263 109-102 0-195-42-263-109v-1c-67-67-109-160-109-262 0-103 42-196 109-263h0c68-68 161-109 263-109zm148 224c-38-38-90-61-148-61s-110 23-148 61c-37 38-60 90-60 148 0 57 23 110 60 147 38 38 90 61 148 61s110-23 148-61c37-37 61-90 61-147 0-58-24-110-61-148zm-791 404l-201-32c-35-5-62-33-68-66h0c-9-53-13-106-13-158 0-53 4-106 13-158 7-38 38-65 74-68l195-31 4-8 1-4 2-5-120-164c-21-29-20-67 0-95h-1c31-43 65-84 103-122h0c38-37 78-72 121-102 32-22 73-19 100 5l160 116 8-4h0l9-3 31-201c6-36 34-62 67-68h0c53-9 106-14 158-14 53 0 105 5 158 14 38 6 65 37 68 74l31 195 8 3 4 2 4 2 145-105V825H166v2473c0 53 21 101 55 135 35 34 83 56 135 56h1991l99-136-3-9h0l-4-8zm-115-183l183 29c32 3 60 24 71 57 4 14 9 29 15 43h0c6 15 13 29 20 42h0c13 27 12 60-7 86l-112 154c15 19 32 37 49 54v1c17 17 36 33 55 49l152-111c24-19 58-23 88-8 12 7 26 13 42 20 14 5 28 11 43 15h0c29 9 51 34 56 66l30 188c24 2 48 4 73 4s49-1 74-4l28-183c3-32 25-61 57-71 15-4 29-10 43-16v1l1-1c14-6 28-12 42-19h0c26-14 59-12 85 6l155 113c19-16 37-32 54-49v-1c18-17 34-35 50-54l-111-152c-19-24-24-59-8-88 6-12 13-27 19-42 6-14 11-29 16-43h0c9-29 33-51 65-56l189-30c2-24 3-49 3-73 0-25-1-50-3-74l-184-29c-32-3-60-24-70-57-5-14-10-29-16-43h0c-5-13-12-27-20-42h1c-14-26-13-60 6-85l113-155c-16-19-32-37-50-54v-1c-17-17-35-33-54-49l-152 111c-25 19-59 23-88 8-13-6-25-12-39-18l-4-1c-14-6-28-11-43-16h0c-28-9-51-34-56-65l-29-189c-25-2-49-3-74-3s-49 1-73 3l-29 183c-3 32-25 61-57 71-15 5-29 10-43 16h0c-15 6-29 12-42 19h0c-27 14-60 13-86-6l-154-113c-19 16-37 32-55 49v1c-17 17-34 35-49 54l108 149c21 24 27 60 11 91-7 14-13 27-18 39l-2 3c-6 14-11 29-15 43h-1c-9 29-33 52-65 57l-188 29c-3 24-4 49-4 74 0 24 1 49 4 73zm1339-794c26 21 50 43 73 66l1 1c37 37 71 78 102 121 22 31 19 72-5 100l-116 159 4 9h0l3 8 201 32c36 5 62 33 68 67h0c9 52 14 105 14 158 0 52-5 105-14 158-6 37-38 64-74 67l-195 31-3 8-4 9 120 165c21 28 20 67 1 94h0c-31 44-65 84-102 122h-1c-37 38-78 72-121 102-31 22-72 19-100-5l-160-116-8 4h0l-8 4-32 200c-6 36-33 63-67 68h0c-53 10-105 14-158 14-52 0-105-4-158-14-37-6-65-37-68-73l-30-195-9-4-8-3-165 119c-29 21-67 21-95 1h0c-43-30-83-64-121-102h0c-26-26-50-53-73-82H356c-97 0-186-39-250-104h0C42 3484 2 3396 2 3298V356c0-97 40-186 104-250h0C170 42 259 2 356 2h2953c97 0 186 40 250 104h0c64 64 104 153 104 250v2003zM166 356v305h3334V356c0-52-22-100-56-135-35-34-82-55-135-55H356c-52 0-100 21-135 55-34 35-55 83-55 135zm253 142c-45 0-82-37-82-82s37-81 82-81h5c46 0 82 36 82 81s-36 82-82 82h-5zm343 0c-45 0-82-37-82-82s37-81 82-81h6c45 0 81 36 81 81s-36 82-81 82h-6zm343 0c-45 0-81-37-81-82s36-81 81-81h6c45 0 82 36 82 81s-37 82-82 82h-6z"/></svg>