<svg xmlns="http://www.w3.org/2000/svg" shape-rendering="geometricPrecision" text-rendering="geometricPrecision" image-rendering="optimizeQuality" viewBox="0 0 3999 3999"><g id="icon-phone-circle"><path d="M1832 2021c-83-83-102-205-48-310 19-37 38-74 57-112 22-42 14-90-19-124-83-82-165-165-248-248-21-21-47-31-77-31-29 1-55 12-75 33-84 88-147 197-165 341-26 201 9 420 158 569l570 570c149 149 368 184 569 158 144-18 253-81 341-165 21-20 32-46 33-75 0-30-10-56-31-77-83-83-166-165-248-248-34-33-82-41-124-19-38 19-75 38-112 57-105 54-227 35-310-48-90-91-180-181-271-271z"/><path d="M1999 2c552 0 1051 224 1413 585 361 362 585 861 585 1412 0 552-224 1051-585 1413-362 361-861 585-1413 585-551 0-1050-224-1412-585C226 3050 2 2551 2 1999 2 1448 226 949 587 587 949 226 1448 2 1999 2zm1331 667c-340-341-811-551-1331-551-519 0-990 210-1330 551-341 340-551 811-551 1330 0 520 210 991 551 1331 340 340 811 551 1330 551 520 0 991-211 1331-551s551-811 551-1331c0-519-211-990-551-1330z"/></g></svg>