<svg xmlns="http://www.w3.org/2000/svg" shape-rendering="geometricPrecision" text-rendering="geometricPrecision" image-rendering="optimizeQuality" viewBox="0 0 8030 7633"><path id="icon-adaptive" d="M667 2665h2630c126 0 241 51 324 134s134 198 134 324v1213h1927v-275c0-126 51-241 134-324s198-135 324-135h1162V667c0-99-40-188-104-252-65-65-154-105-252-105H1024c-99 0-188 40-253 105-64 64-104 153-104 252v1998zm2630 305H463c-42 0-80 18-108 45-28 28-45 66-45 108v262h3140v-262c0-42-18-80-45-108-28-27-66-45-108-45zm458 1672v744h1927v-744H3755zm0 1050v613h1114l-199-613h-915zm0 919v293h1097c27 0 50-5 71-16 20-10 38-26 53-47 16-21 26-44 29-66 4-22 1-46-7-71l-30-93H3755zm-305 539v-223H310v223c0 42 17 80 45 108 28 27 66 44 108 44h2834c42 0 80-17 108-44 27-28 45-66 45-108zm0-529V3691H310v2930h3140zm301 589c-13 102-61 194-130 264-83 83-198 134-324 134H463c-126 0-241-51-324-134S4 7276 4 7150V3123c0-126 52-241 135-324 60-60 136-103 222-123V667c0-182 74-348 194-468h1C676 79 842 4 1024 4h5922c182 0 347 75 467 195h1c120 120 194 286 194 468v2937c110 10 210 59 284 133 83 83 134 198 134 324v3109c0 126-51 241-134 324s-198 135-324 135H6140c-126 0-241-52-324-135s-134-198-134-324V5692h-691l230 709c2 6 4 13 6 19l61 189c23 71 29 144 18 214-11 71-39 137-83 197-44 61-99 109-162 141s-134 49-209 49H3751zm3817-3302H6140c-42 0-80 17-108 45-27 28-44 66-44 108v275h1732v-275c0-42-17-80-45-108-27-28-66-45-107-45zm152 3262v-241H5988v241c0 42 17 80 44 108 28 28 66 45 108 45h1428c41 0 80-17 107-45 28-28 45-66 45-108zm0-546V4642H5988v1982h1732zm-1125-909c-60 59-157 57-215-4-59-61-57-157 4-216l517-496c61-59 157-57 216 4 58 60 56 157-4 215l-518 497zm260 530c-61 59-157 57-215-4-59-61-57-157 4-216l517-496c61-59 157-57 216 4 58 60 56 157-5 215l-517 497zm-5329-148c-61 58-157 56-216-4-58-61-56-157 4-216l1480-1421c60-58 157-56 215 4 59 61 57 158-4 216L1526 6097zm-574-393c-61 59-157 57-215-4-59-61-57-157 4-216l393-377c60-58 157-56 215 4 58 61 57 157-4 216l-393 377zm819-786c-61 58-157 56-216-5-58-60-56-157 5-215l660-635c61-58 157-56 216 5 58 60 56 157-5 215l-660 635zm3050-3466c-61 59-157 57-215-4-59-61-57-157 4-215l423-408c61-58 158-56 216 5 58 60 57 157-4 215l-424 407zM3779 2454c-61 58-157 56-216-5-58-60-56-157 4-215l640-615c61-58 157-56 216 5 58 60 56 157-5 215l-639 615zm1224-217c-61 58-157 56-216-4-58-61-56-157 5-216l638-613c61-59 158-57 216 4 58 60 56 157-4 215l-639 614zm-818 786c-61 58-157 56-216-4-58-61-56-157 4-216l401-384c60-59 157-57 215 4 59 60 57 157-4 215l-400 385zM1057 878c-84 0-153-69-153-153 0-85 69-153 153-153h10c85 0 153 68 153 153 0 84-68 153-153 153h-10zm551 0c-85 0-153-69-153-153 0-85 68-153 153-153h10c84 0 153 68 153 153 0 84-69 153-153 153h-10zm550 0c-84 0-153-69-153-153 0-85 69-153 153-153h10c85 0 153 68 153 153 0 84-68 153-153 153h-10z"/></svg>