<svg xmlns="http://www.w3.org/2000/svg" shape-rendering="geometricPrecision" text-rendering="geometricPrecision" image-rendering="optimizeQuality" viewBox="0 0 1601 1599"><path id="icon-programming" d="M201 197c-18 0-33-14-33-32s15-33 33-33h2c18 0 32 15 32 33s-14 32-32 32h-2zm133 0c-18 0-33-14-33-32s15-33 33-33h2c18 0 33 15 33 33s-15 32-33 32h-2zm1061 0c-18 0-33-14-33-32s15-33 33-33h2c18 0 33 15 33 33s-15 32-33 32h-2zM159 332c-18 0-32-15-32-33s14-32 32-32h452c18 0 32 14 32 32s-14 33-32 33H159zm838 0c-18 0-33-15-33-33s15-32 33-32h413c18 0 33 14 33 32s-15 33-33 33H997zM142 1h1317c39 0 74 16 99 41h1c25 26 41 61 41 100v1315c0 39-16 74-41 99h-1c-25 26-60 42-99 42H142c-39 0-74-16-100-42h0c-25-25-41-60-41-99V142c0-39 16-74 41-100h0C68 17 103 1 142 1zm1317 65H142c-21 0-40 8-54 22s-22 33-22 54v1315c0 21 8 40 22 53 14 14 33 23 54 23h1317c21 0 40-9 54-23 13-13 22-32 22-53V142c0-21-9-40-22-54-14-14-33-22-54-22zM224 524h305l253-241c12-12 32-12 45 0l253 241h281c27 0 52 11 69 28 18 18 29 43 29 69v677c0 27-11 52-29 69-17 18-42 29-69 29H224c-27 0-51-11-69-29-17-17-28-42-28-69V621c0-26 11-51 28-69 18-17 42-28 69-28zm399 0h362L804 352 623 524zm738 65H224c-9 0-17 4-23 9-6 6-9 14-9 23v677c0 9 3 17 9 23s14 10 23 10h1137c9 0 17-4 23-10s10-14 10-23V621c0-9-4-17-10-23-6-5-14-9-23-9zm-725 459c0-18 14-33 32-33s33 15 33 33v52c0 27-11 51-29 69s-42 29-69 29h-79c-27 0-52-11-69-29-18-18-29-42-29-69V828c0-27 11-51 29-69 17-18 42-29 69-29h79c27 0 51 11 69 29s29 42 29 69v52c0 18-15 33-33 33s-32-15-32-33v-52c0-9-4-17-10-23s-14-9-23-9h-79c-9 0-17 3-23 9s-10 14-10 23v272c0 9 4 17 10 23s14 9 23 9h79c9 0 17-3 23-9s10-14 10-23v-52zm158-153c-18 0-33-14-33-32s15-33 33-33h36v-75c0-18 14-32 32-32s33 14 33 32v75h116v-75c0-18 14-32 32-32s33 14 33 32v75h36c18 0 32 15 32 33s-14 32-32 32h-36v138h36c18 0 32 15 32 33s-14 32-32 32h-36v75c0 18-15 33-33 33s-32-15-32-33v-75H895v75c0 18-15 33-33 33s-32-15-32-33v-75h-36c-18 0-33-14-33-32s15-33 33-33h36V895h-36zm217 0H895v138h116V895zM827 283h0"/></svg>