<svg xmlns="http://www.w3.org/2000/svg" shape-rendering="geometricPrecision" text-rendering="geometricPrecision" image-rendering="optimizeQuality" viewBox="0 0 2667 2667"><path id="icon-phone" d="M927 1310c-132-132-162-325-77-491 31-60 61-119 91-178 34-66 22-144-30-197C779 313 648 182 517 51 484 18 443 1 396 1c-47 1-88 19-120 53C143 192 43 366 14 595c-41 319 14 666 251 903l904 904c237 237 584 292 903 251 229-29 403-129 541-261 34-33 52-74 53-121 0-47-16-88-50-121-131-131-262-262-393-394-53-52-130-64-197-30-59 30-118 60-177 91-167 85-360 55-492-77-144-143-287-286-430-430z"/></svg>