<svg xmlns="http://www.w3.org/2000/svg" shape-rendering="geometricPrecision" text-rendering="geometricPrecision" image-rendering="optimizeQuality" viewBox="0 0 258 258"><g id="no-design"><path id="body" d="M34 34c1 0 2 0 2 1s-1 2-2 2-2-1-2-2 1-1 2-1zm20 0c1 0 2 0 2 1s-1 2-2 2-1-1-1-2 0-1 1-1zm21 0c1 0 1 0 1 1s0 2-1 2-2-1-2-2 1-1 2-1zm157 31v162c0 9-8 16-17 16H20c-9 0-16-7-16-16V31c0-9 7-16 16-16h195c9 0 17 7 17 16v1M4 55h198m-72 81c8-14 26-36 49-60 35-35 69-58 75-52s-18 39-53 75c-23 22-45 41-59 49m-58 20c8 7 17 14 33 12 12-1 25-7 26-20 4-26-34-35-39-13-1 5 1 10 0 14-1 9-9 11-20 7zm61-53l18 18"/><path d="M3 255L255 3m0 252L3 3" stroke="currentColor"/></g></svg>